<mxfile host="65bd71144e">
    <diagram id="Se64F-58pV_5hdiEMO8w" name="Page-1">
        <mxGraphModel dx="1053" dy="2279" grid="1" gridSize="10" guides="1" tooltips="1" connect="1" arrows="1" fold="1" page="1" pageScale="1" pageWidth="850" pageHeight="1100" math="0" shadow="0">
            <root>
                <mxCell id="0"/>
                <mxCell id="1" parent="0"/>
                <mxCell id="65" value="1" style="ellipse;whiteSpace=wrap;html=1;aspect=fixed;fontSize=30;strokeColor=#000000;" vertex="1" parent="1">
                    <mxGeometry x="1172.5" y="65" width="55" height="55" as="geometry"/>
                </mxCell>
                <mxCell id="82" style="edgeStyle=orthogonalEdgeStyle;curved=1;html=1;exitX=1;exitY=0.5;exitDx=0;exitDy=0;entryX=0;entryY=0.5;entryDx=0;entryDy=0;fontSize=30;endArrow=block;endFill=1;endSize=15;" edge="1" parent="1" source="64" target="65">
                    <mxGeometry relative="1" as="geometry"/>
                </mxCell>
                <mxCell id="64" value="" style="rounded=1;whiteSpace=wrap;html=1;fontSize=30;strokeColor=#000000;" vertex="1" parent="1">
                    <mxGeometry x="970" y="62.5" width="140" height="60" as="geometry"/>
                </mxCell>
                <mxCell id="11" value="a-z" style="edgeStyle=orthogonalEdgeStyle;html=1;exitX=0.5;exitY=0;exitDx=0;exitDy=0;entryX=0;entryY=0;entryDx=0;entryDy=0;fontSize=30;endArrow=block;endFill=1;endSize=15;curved=1;" edge="1" parent="1" source="2" target="5">
                    <mxGeometry relative="1" as="geometry">
                        <Array as="points">
                            <mxPoint x="140" y="40"/>
                            <mxPoint x="312" y="40"/>
                        </Array>
                    </mxGeometry>
                </mxCell>
                <mxCell id="18" value="a-z" style="edgeStyle=orthogonalEdgeStyle;curved=1;html=1;exitX=0.5;exitY=1;exitDx=0;exitDy=0;entryX=0;entryY=0.5;entryDx=0;entryDy=0;fontSize=30;endArrow=block;endFill=1;endSize=15;" edge="1" parent="1" source="2" target="16">
                    <mxGeometry relative="1" as="geometry"/>
                </mxCell>
                <mxCell id="35" style="edgeStyle=orthogonalEdgeStyle;curved=1;html=1;fontSize=30;endArrow=block;endFill=1;endSize=15;entryX=0;entryY=0.5;entryDx=0;entryDy=0;" edge="1" parent="1" target="2">
                    <mxGeometry relative="1" as="geometry">
                        <mxPoint x="40" y="60" as="targetPoint"/>
                        <mxPoint x="40" y="110" as="sourcePoint"/>
                    </mxGeometry>
                </mxCell>
                <mxCell id="2" value="0" style="ellipse;whiteSpace=wrap;html=1;aspect=fixed;fontSize=30;" vertex="1" parent="1">
                    <mxGeometry x="100" y="70" width="80" height="80" as="geometry"/>
                </mxCell>
                <mxCell id="14" value="c" style="edgeStyle=orthogonalEdgeStyle;curved=1;html=1;exitX=1;exitY=0;exitDx=0;exitDy=0;entryX=0;entryY=0;entryDx=0;entryDy=0;fontSize=30;endArrow=block;endFill=1;endSize=15;" edge="1" parent="1" source="5" target="6">
                    <mxGeometry relative="1" as="geometry">
                        <Array as="points">
                            <mxPoint x="368" y="40"/>
                            <mxPoint x="482" y="40"/>
                        </Array>
                    </mxGeometry>
                </mxCell>
                <mxCell id="5" value="1" style="ellipse;whiteSpace=wrap;html=1;aspect=fixed;fontSize=30;" vertex="1" parent="1">
                    <mxGeometry x="300" y="70" width="80" height="80" as="geometry"/>
                </mxCell>
                <mxCell id="6" value="2" style="ellipse;whiteSpace=wrap;html=1;aspect=fixed;fontSize=30;" vertex="1" parent="1">
                    <mxGeometry x="470" y="70" width="80" height="80" as="geometry"/>
                </mxCell>
                <mxCell id="7" value="2" style="ellipse;whiteSpace=wrap;html=1;aspect=fixed;fontSize=30;" vertex="1" parent="1">
                    <mxGeometry x="480" y="80" width="60" height="60" as="geometry"/>
                </mxCell>
                <mxCell id="13" value="([a-z]c+)|[a-z][0-9]" style="text;html=1;strokeColor=none;fillColor=none;align=center;verticalAlign=middle;whiteSpace=wrap;rounded=0;fontSize=30;" vertex="1" parent="1">
                    <mxGeometry x="100" y="-60" width="550" height="30" as="geometry"/>
                </mxCell>
                <mxCell id="15" value="c" style="edgeStyle=orthogonalEdgeStyle;curved=1;html=1;exitX=1;exitY=0;exitDx=0;exitDy=0;fontSize=30;endArrow=block;endFill=1;endSize=15;entryX=1;entryY=1;entryDx=0;entryDy=0;" edge="1" parent="1" source="6" target="6">
                    <mxGeometry y="10" relative="1" as="geometry">
                        <mxPoint x="570" y="150" as="targetPoint"/>
                        <Array as="points">
                            <mxPoint x="590" y="82"/>
                            <mxPoint x="590" y="139"/>
                        </Array>
                        <mxPoint as="offset"/>
                    </mxGeometry>
                </mxCell>
                <mxCell id="22" value="0-9" style="edgeStyle=orthogonalEdgeStyle;curved=1;html=1;exitX=1;exitY=0.5;exitDx=0;exitDy=0;entryX=0;entryY=0.5;entryDx=0;entryDy=0;fontSize=30;endArrow=block;endFill=1;endSize=15;" edge="1" parent="1" source="16" target="19">
                    <mxGeometry relative="1" as="geometry"/>
                </mxCell>
                <mxCell id="16" value="3" style="ellipse;whiteSpace=wrap;html=1;aspect=fixed;fontSize=30;" vertex="1" parent="1">
                    <mxGeometry x="200" y="190" width="80" height="80" as="geometry"/>
                </mxCell>
                <mxCell id="19" value="2" style="ellipse;whiteSpace=wrap;html=1;aspect=fixed;fontSize=30;" vertex="1" parent="1">
                    <mxGeometry x="400" y="190" width="80" height="80" as="geometry"/>
                </mxCell>
                <mxCell id="20" value="4" style="ellipse;whiteSpace=wrap;html=1;aspect=fixed;fontSize=30;" vertex="1" parent="1">
                    <mxGeometry x="410" y="200" width="60" height="60" as="geometry"/>
                </mxCell>
                <mxCell id="36" value="a-z" style="edgeStyle=orthogonalEdgeStyle;html=1;exitX=1;exitY=0.5;exitDx=0;exitDy=0;entryX=0;entryY=0.5;entryDx=0;entryDy=0;fontSize=30;endArrow=block;endFill=1;endSize=15;curved=1;" edge="1" parent="1" source="39" target="41">
                    <mxGeometry relative="1" as="geometry">
                        <Array as="points">
                            <mxPoint x="250" y="380"/>
                            <mxPoint x="250" y="380"/>
                        </Array>
                    </mxGeometry>
                </mxCell>
                <mxCell id="38" style="edgeStyle=orthogonalEdgeStyle;curved=1;html=1;fontSize=30;endArrow=block;endFill=1;endSize=15;entryX=0;entryY=0.5;entryDx=0;entryDy=0;" edge="1" parent="1" target="39">
                    <mxGeometry relative="1" as="geometry">
                        <mxPoint x="40" y="330" as="targetPoint"/>
                        <mxPoint x="40" y="380" as="sourcePoint"/>
                    </mxGeometry>
                </mxCell>
                <mxCell id="39" value="0" style="ellipse;whiteSpace=wrap;html=1;aspect=fixed;fontSize=30;strokeColor=#000000;" vertex="1" parent="1">
                    <mxGeometry x="100" y="340" width="80" height="80" as="geometry"/>
                </mxCell>
                <mxCell id="40" value="c" style="edgeStyle=orthogonalEdgeStyle;curved=1;html=1;exitX=1;exitY=0;exitDx=0;exitDy=0;entryX=0;entryY=0;entryDx=0;entryDy=0;fontSize=30;endArrow=block;endFill=1;endSize=15;" edge="1" parent="1" source="41" target="42">
                    <mxGeometry relative="1" as="geometry">
                        <Array as="points">
                            <mxPoint x="368" y="310"/>
                            <mxPoint x="482" y="310"/>
                        </Array>
                    </mxGeometry>
                </mxCell>
                <mxCell id="41" value="1" style="ellipse;whiteSpace=wrap;html=1;aspect=fixed;fontSize=30;strokeColor=#000000;" vertex="1" parent="1">
                    <mxGeometry x="300" y="340" width="80" height="80" as="geometry"/>
                </mxCell>
                <mxCell id="42" value="2" style="ellipse;whiteSpace=wrap;html=1;aspect=fixed;fontSize=30;strokeColor=#000000;" vertex="1" parent="1">
                    <mxGeometry x="470" y="340" width="80" height="80" as="geometry"/>
                </mxCell>
                <mxCell id="43" value="2" style="ellipse;whiteSpace=wrap;html=1;aspect=fixed;fontSize=30;strokeColor=#000000;" vertex="1" parent="1">
                    <mxGeometry x="480" y="350" width="60" height="60" as="geometry"/>
                </mxCell>
                <mxCell id="44" value="c" style="edgeStyle=orthogonalEdgeStyle;curved=1;html=1;exitX=1;exitY=0;exitDx=0;exitDy=0;fontSize=30;endArrow=block;endFill=1;endSize=15;entryX=1;entryY=1;entryDx=0;entryDy=0;" edge="1" parent="1" source="42" target="42">
                    <mxGeometry y="10" relative="1" as="geometry">
                        <mxPoint x="570" y="420" as="targetPoint"/>
                        <Array as="points">
                            <mxPoint x="590" y="352"/>
                            <mxPoint x="590" y="409"/>
                        </Array>
                        <mxPoint as="offset"/>
                    </mxGeometry>
                </mxCell>
                <mxCell id="45" value="0-9" style="edgeStyle=orthogonalEdgeStyle;curved=1;html=1;exitX=0.5;exitY=1;exitDx=0;exitDy=0;entryX=0;entryY=0.5;entryDx=0;entryDy=0;fontSize=30;endArrow=block;endFill=1;endSize=15;" edge="1" parent="1" source="41" target="47">
                    <mxGeometry relative="1" as="geometry">
                        <mxPoint x="280" y="500" as="sourcePoint"/>
                    </mxGeometry>
                </mxCell>
                <mxCell id="47" value="2" style="ellipse;whiteSpace=wrap;html=1;aspect=fixed;fontSize=30;strokeColor=#000000;" vertex="1" parent="1">
                    <mxGeometry x="400" y="460" width="80" height="80" as="geometry"/>
                </mxCell>
                <mxCell id="48" value="3" style="ellipse;whiteSpace=wrap;html=1;aspect=fixed;fontSize=30;strokeColor=#000000;" vertex="1" parent="1">
                    <mxGeometry x="410" y="470" width="60" height="60" as="geometry"/>
                </mxCell>
                <mxCell id="88" style="edgeStyle=orthogonalEdgeStyle;curved=1;html=1;exitX=0.5;exitY=1;exitDx=0;exitDy=0;entryX=0.5;entryY=0;entryDx=0;entryDy=0;fontSize=30;endArrow=open;endFill=0;endSize=15;" edge="1" parent="1" source="49" target="50">
                    <mxGeometry relative="1" as="geometry"/>
                </mxCell>
                <mxCell id="49" value="Non-Deterministic" style="text;html=1;strokeColor=none;fillColor=none;align=center;verticalAlign=middle;whiteSpace=wrap;rounded=0;fontSize=30;" vertex="1" parent="1">
                    <mxGeometry x="630" y="110" width="300" height="50" as="geometry"/>
                </mxCell>
                <mxCell id="89" style="edgeStyle=orthogonalEdgeStyle;html=1;exitX=1;exitY=0.5;exitDx=0;exitDy=0;entryX=0;entryY=0.5;entryDx=0;entryDy=0;fontSize=30;endArrow=open;endFill=0;endSize=15;" edge="1" parent="1" source="50" target="86">
                    <mxGeometry relative="1" as="geometry"/>
                </mxCell>
                <mxCell id="50" value="Deterministic" style="text;html=1;strokeColor=none;fillColor=none;align=center;verticalAlign=middle;whiteSpace=wrap;rounded=0;fontSize=30;" vertex="1" parent="1">
                    <mxGeometry x="690" y="362.5" width="180" height="35" as="geometry"/>
                </mxCell>
                <mxCell id="87" style="edgeStyle=orthogonalEdgeStyle;curved=1;html=1;exitX=0.5;exitY=1;exitDx=0;exitDy=0;entryX=0.5;entryY=0;entryDx=0;entryDy=0;fontSize=30;endArrow=open;endFill=0;endSize=15;" edge="1" parent="1" source="51" target="49">
                    <mxGeometry relative="1" as="geometry"/>
                </mxCell>
                <mxCell id="51" value="Regular Expression" style="text;html=1;strokeColor=none;fillColor=none;align=center;verticalAlign=middle;whiteSpace=wrap;rounded=0;fontSize=30;" vertex="1" parent="1">
                    <mxGeometry x="630" y="-65" width="300" height="40" as="geometry"/>
                </mxCell>
                <mxCell id="52" value="0" style="ellipse;whiteSpace=wrap;html=1;aspect=fixed;fontSize=30;strokeColor=#000000;" vertex="1" parent="1">
                    <mxGeometry x="980" y="72.5" width="40" height="40" as="geometry"/>
                </mxCell>
                <mxCell id="53" value="[a-z]" style="text;html=1;strokeColor=none;fillColor=none;align=center;verticalAlign=middle;whiteSpace=wrap;rounded=0;fontSize=30;" vertex="1" parent="1">
                    <mxGeometry x="1030" y="77.5" width="75" height="30" as="geometry"/>
                </mxCell>
                <mxCell id="66" value="2" style="ellipse;whiteSpace=wrap;html=1;aspect=fixed;fontSize=30;strokeColor=#000000;" vertex="1" parent="1">
                    <mxGeometry x="1173.75" y="145" width="55" height="55" as="geometry"/>
                </mxCell>
                <mxCell id="83" style="edgeStyle=orthogonalEdgeStyle;curved=1;html=1;exitX=1;exitY=0.5;exitDx=0;exitDy=0;entryX=0;entryY=0.5;entryDx=0;entryDy=0;fontSize=30;endArrow=block;endFill=1;endSize=15;" edge="1" parent="1" source="67" target="66">
                    <mxGeometry relative="1" as="geometry"/>
                </mxCell>
                <mxCell id="67" value="" style="rounded=1;whiteSpace=wrap;html=1;fontSize=30;strokeColor=#000000;" vertex="1" parent="1">
                    <mxGeometry x="971.25" y="142.5" width="140" height="60" as="geometry"/>
                </mxCell>
                <mxCell id="68" value="1" style="ellipse;whiteSpace=wrap;html=1;aspect=fixed;fontSize=30;strokeColor=#000000;" vertex="1" parent="1">
                    <mxGeometry x="981.25" y="152.5" width="40" height="40" as="geometry"/>
                </mxCell>
                <mxCell id="69" value="c" style="text;html=1;strokeColor=none;fillColor=none;align=center;verticalAlign=middle;whiteSpace=wrap;rounded=0;fontSize=30;" vertex="1" parent="1">
                    <mxGeometry x="1031.25" y="157.5" width="75" height="30" as="geometry"/>
                </mxCell>
                <mxCell id="70" value="2" style="ellipse;whiteSpace=wrap;html=1;aspect=fixed;fontSize=30;strokeColor=#000000;" vertex="1" parent="1">
                    <mxGeometry x="1173.75" y="225" width="55" height="55" as="geometry"/>
                </mxCell>
                <mxCell id="84" style="edgeStyle=orthogonalEdgeStyle;curved=1;html=1;exitX=1;exitY=0.5;exitDx=0;exitDy=0;entryX=0;entryY=0.5;entryDx=0;entryDy=0;fontSize=30;endArrow=block;endFill=1;endSize=15;" edge="1" parent="1" source="71" target="70">
                    <mxGeometry relative="1" as="geometry"/>
                </mxCell>
                <mxCell id="71" value="" style="rounded=1;whiteSpace=wrap;html=1;fontSize=30;strokeColor=#000000;" vertex="1" parent="1">
                    <mxGeometry x="971.25" y="222.5" width="140" height="60" as="geometry"/>
                </mxCell>
                <mxCell id="72" value="2" style="ellipse;whiteSpace=wrap;html=1;aspect=fixed;fontSize=30;strokeColor=#000000;" vertex="1" parent="1">
                    <mxGeometry x="981.25" y="232.5" width="40" height="40" as="geometry"/>
                </mxCell>
                <mxCell id="73" value="c" style="text;html=1;strokeColor=none;fillColor=none;align=center;verticalAlign=middle;whiteSpace=wrap;rounded=0;fontSize=30;" vertex="1" parent="1">
                    <mxGeometry x="1031.25" y="237.5" width="75" height="30" as="geometry"/>
                </mxCell>
                <mxCell id="74" value="2" style="ellipse;whiteSpace=wrap;html=1;aspect=fixed;fontSize=30;strokeColor=#000000;" vertex="1" parent="1">
                    <mxGeometry x="1181.25" y="152.5" width="40" height="40" as="geometry"/>
                </mxCell>
                <mxCell id="75" value="2" style="ellipse;whiteSpace=wrap;html=1;aspect=fixed;fontSize=30;strokeColor=#000000;" vertex="1" parent="1">
                    <mxGeometry x="1181.25" y="232.5" width="40" height="40" as="geometry"/>
                </mxCell>
                <mxCell id="77" value="2" style="ellipse;whiteSpace=wrap;html=1;aspect=fixed;fontSize=30;strokeColor=#000000;" vertex="1" parent="1">
                    <mxGeometry x="1173.75" y="305" width="55" height="55" as="geometry"/>
                </mxCell>
                <mxCell id="85" style="edgeStyle=orthogonalEdgeStyle;curved=1;html=1;exitX=1;exitY=0.5;exitDx=0;exitDy=0;entryX=0;entryY=0.5;entryDx=0;entryDy=0;fontSize=30;endArrow=block;endFill=1;endSize=15;" edge="1" parent="1" source="78" target="77">
                    <mxGeometry relative="1" as="geometry"/>
                </mxCell>
                <mxCell id="78" value="" style="rounded=1;whiteSpace=wrap;html=1;fontSize=30;strokeColor=#000000;" vertex="1" parent="1">
                    <mxGeometry x="971.25" y="302.5" width="140" height="60" as="geometry"/>
                </mxCell>
                <mxCell id="79" value="1" style="ellipse;whiteSpace=wrap;html=1;aspect=fixed;fontSize=30;strokeColor=#000000;" vertex="1" parent="1">
                    <mxGeometry x="981.25" y="312.5" width="40" height="40" as="geometry"/>
                </mxCell>
                <mxCell id="80" value="[0-9]" style="text;html=1;strokeColor=none;fillColor=none;align=center;verticalAlign=middle;whiteSpace=wrap;rounded=0;fontSize=30;" vertex="1" parent="1">
                    <mxGeometry x="1031.25" y="317.5" width="75" height="30" as="geometry"/>
                </mxCell>
                <mxCell id="81" value="3" style="ellipse;whiteSpace=wrap;html=1;aspect=fixed;fontSize=30;strokeColor=#000000;" vertex="1" parent="1">
                    <mxGeometry x="1181.25" y="312.5" width="40" height="40" as="geometry"/>
                </mxCell>
                <mxCell id="86" value="Lookup Table" style="text;html=1;strokeColor=none;fillColor=none;align=center;verticalAlign=middle;whiteSpace=wrap;rounded=0;fontSize=30;" vertex="1" parent="1">
                    <mxGeometry x="1000" y="12.5" width="210" height="30" as="geometry"/>
                </mxCell>
                <mxCell id="90" value="0" style="ellipse;whiteSpace=wrap;html=1;aspect=fixed;fontSize=30;strokeColor=#000000;" vertex="1" parent="1">
                    <mxGeometry x="100" y="70" width="80" height="80" as="geometry"/>
                </mxCell>
                <mxCell id="91" value="1" style="ellipse;whiteSpace=wrap;html=1;aspect=fixed;fontSize=30;strokeColor=#000000;" vertex="1" parent="1">
                    <mxGeometry x="300" y="70" width="80" height="80" as="geometry"/>
                </mxCell>
                <mxCell id="92" value="3" style="ellipse;whiteSpace=wrap;html=1;aspect=fixed;fontSize=30;strokeColor=#000000;" vertex="1" parent="1">
                    <mxGeometry x="200" y="190" width="80" height="80" as="geometry"/>
                </mxCell>
                <mxCell id="93" value="2" style="ellipse;whiteSpace=wrap;html=1;aspect=fixed;fontSize=30;strokeColor=#000000;" vertex="1" parent="1">
                    <mxGeometry x="400" y="190" width="80" height="80" as="geometry"/>
                </mxCell>
                <mxCell id="94" value="4" style="ellipse;whiteSpace=wrap;html=1;aspect=fixed;fontSize=30;strokeColor=#000000;" vertex="1" parent="1">
                    <mxGeometry x="410" y="200" width="60" height="60" as="geometry"/>
                </mxCell>
                <mxCell id="95" value="2" style="ellipse;whiteSpace=wrap;html=1;aspect=fixed;fontSize=30;strokeColor=#000000;" vertex="1" parent="1">
                    <mxGeometry x="470" y="70" width="80" height="80" as="geometry"/>
                </mxCell>
                <mxCell id="96" value="2" style="ellipse;whiteSpace=wrap;html=1;aspect=fixed;fontSize=30;strokeColor=#000000;" vertex="1" parent="1">
                    <mxGeometry x="480" y="80" width="60" height="60" as="geometry"/>
                </mxCell>
            </root>
        </mxGraphModel>
    </diagram>
</mxfile>